<?xml version="1.0" encoding="utf-8"?>
<!-- Generator: Adobe Illustrator 25.0.0, SVG Export Plug-In . SVG Version: 6.00 Build 0)  -->
<svg version="1.1" id="Layer_1" xmlns="http://www.w3.org/2000/svg" xmlns:xlink="http://www.w3.org/1999/xlink" x="0px" y="0px"
	 viewBox="190 10 375 250" style="enable-background:new 190 10 375 250;" xml:space="preserve">
<style type="text/css">
	.st0{fill:none;stroke:#000000;stroke-width:3;stroke-miterlimit:10;}
	.st1{fill:#000000;stroke:#000000;}
</style>
<g>
	<polygon class="st0" points="560.09,13.09 282.84,13.09 300.81,78.64 301.46,81.54 301.89,84.53 302.04,87.79 301.87,90.62 
		301.3,94.04 300.05,97.95 298.18,101.73 295.67,105.35 292.66,108.63 287.68,112.9 282.84,116.76 276.53,121.61 269.22,127.04 
		260.97,133.05 258.61,134.94 255.89,137.7 253.32,141.36 251.53,145.36 250.41,150.38 250.16,152.46 250.16,157.36 250.38,255.66 
		560.09,255.66 	"/>
	<polyline class="st0" points="237.38,137.47 231.16,131.4 227,127.72 223.69,124.79 219.9,121.45 216.28,118.26 212.57,114.99 
		209.33,112.14 205.47,108.74 202.31,105.97 200.88,104.7 198.12,101.89 196.11,99.07 194.48,95.77 193.55,92.5 193.18,89.42 
		193.18,86.45 193.94,82.16 194.63,79.36 195.74,75.04 196.98,70.3 198.38,65.13 199.49,61.1 200.71,56.71 202.09,51.78 
		204.03,44.77 206.19,36.93 207.33,32.81 208.61,28.19 209.72,24.21 210.62,20.91 211.63,17.22 212.05,14.96 212.19,13.09 	"/>
	<g>
		<path class="st1" d="M254.34,248.17v-0.86c1.45-0.07,2.62-0.28,3.51-0.62c0.89-0.34,1.67-0.86,2.35-1.56
			c0.8-0.8,1.34-1.82,1.61-3.04c0.28-1.23,0.41-3.13,0.41-5.71v-27.68c0-2.58-0.14-4.48-0.41-5.71c-0.28-1.23-0.81-2.24-1.61-3.04
			c-0.68-0.73-1.47-1.25-2.37-1.58c-0.9-0.33-2.07-0.53-3.49-0.6v-0.86h24.68c2.5,0,4.15,0.03,4.92,0.07
			c2.86,0.23,5.22,0.9,7.1,2.03c1.63,1,2.89,2.32,3.78,3.94c0.89,1.63,1.33,3.46,1.33,5.48c0,3.28-1.01,5.97-3.04,8.08
			c-0.73,0.78-1.55,1.42-2.48,1.93c-0.93,0.51-2.27,1.08-4.02,1.71c2.4,0.4,4.27,0.84,5.6,1.32c1.33,0.48,2.53,1.14,3.61,1.99
			c1.6,1.3,2.85,2.92,3.74,4.86c0.89,1.94,1.33,4.04,1.33,6.29c0,2.28-0.46,4.36-1.37,6.25s-2.19,3.41-3.81,4.56
			c-1.48,1.03-3.24,1.74-5.28,2.14c-2.04,0.4-4.92,0.6-8.62,0.6H254.34z M270.46,198.06v22.31h3.04c1.43,0,2.9-0.1,4.43-0.3
			c1.33-0.2,2.4-0.44,3.21-0.71c0.81-0.28,1.56-0.65,2.24-1.13c1.28-0.95,2.26-2.17,2.95-3.66c0.69-1.49,1.03-3.14,1.03-4.94
			c0-1.9-0.36-3.71-1.07-5.43c-0.71-1.71-1.66-3.05-2.84-4c-1.03-0.83-2.2-1.39-3.51-1.69c-1.31-0.3-3.31-0.45-5.99-0.45H270.46z
			 M270.46,221.54v15.48c0,1.88,0.13,3.39,0.39,4.55c0.26,1.15,0.7,2.13,1.3,2.93c1.28,1.68,3.47,2.52,6.57,2.52
			c4.03,0,7.22-1.1,9.56-3.31c2.34-2.2,3.51-5.21,3.51-9.01c0-2.18-0.36-4.2-1.09-6.07c-0.73-1.87-1.7-3.3-2.93-4.3
			c-2.25-1.85-5.78-2.78-10.59-2.78H270.46z"/>
		<path class="st1" d="M358.4,248.17h-24.68v-0.86c2.23-0.2,3.78-0.58,4.66-1.13c1.55-0.98,2.33-2.33,2.33-4.06
			c0-1.03-0.35-2.4-1.05-4.13l-0.64-1.58l-3.61-8.87h-16.53l-1.95,5.19l-0.94,2.33c-1.13,2.76-1.69,4.92-1.69,6.5
			c0,0.93,0.21,1.79,0.62,2.59c0.41,0.8,0.97,1.45,1.67,1.95c0.98,0.68,2.23,1.08,3.76,1.2v0.86h-16.83v-0.86
			c1.33-0.07,2.49-0.4,3.49-0.98c1-0.58,1.98-1.5,2.93-2.78c0.8-1.03,1.58-2.35,2.35-3.96c0.76-1.61,1.77-4.04,3.02-7.27
			l13.75-35.42h2.14l16.34,39.48c1.23,2.98,2.2,5.11,2.93,6.38c0.73,1.28,1.51,2.24,2.37,2.89c0.6,0.45,1.29,0.8,2.07,1.03
			c0.78,0.24,1.94,0.45,3.49,0.62V248.17z M334.81,226.01l-7.89-19.46l-7.44,19.46H334.81z"/>
		<path class="st1" d="M405.65,196.63l0.45,16.79h-0.86c-0.28-0.72-0.49-1.28-0.64-1.65c-0.88-2.4-1.59-4.19-2.14-5.37
			c-0.98-2.1-2.39-4.03-4.24-5.78c-1.4-1.33-2.85-2.29-4.36-2.89c-1.5-0.6-3.19-0.9-5.07-0.9c-2.83,0-5.28,0.61-7.36,1.84
			c-1.83,1.08-3.53,2.62-5.11,4.64c-1.58,2.01-2.87,4.31-3.87,6.89c-1.43,3.63-2.14,7.76-2.14,12.4c0,3.93,0.49,7.47,1.46,10.63
			c0.98,3.16,2.4,5.8,4.28,7.93c3.46,3.96,8.04,5.93,13.75,5.93c2.86,0,5.42-0.49,7.7-1.48s4.04-2.38,5.3-4.19
			c1.45-2.08,2.5-4.88,3.16-8.41l0.86,0.15c-0.48,3.96-1.55,7.1-3.23,9.43c-1.6,2.23-3.81,3.93-6.63,5.11
			c-2.82,1.18-6.08,1.77-9.79,1.77c-3.46,0-6.76-0.51-9.92-1.54c-5.03-1.65-8.97-4.64-11.79-8.96c-2.83-4.32-4.24-9.47-4.24-15.46
			c0-4.58,0.83-8.81,2.48-12.68c1.65-3.87,3.96-6.98,6.91-9.33c2.28-1.8,5-3.24,8.17-4.3c3.17-1.06,6.34-1.6,9.52-1.6
			c3.03,0,6.24,0.58,9.62,1.73l3.08,1.01c0.6,0.23,1.13,0.34,1.58,0.34c0.63,0,1.14-0.26,1.54-0.79c0.17-0.25,0.39-0.66,0.64-1.24
			H405.65z"/>
		<path class="st1" d="M457.15,196.63l0.45,16.79h-0.86c-0.28-0.72-0.49-1.28-0.64-1.65c-0.88-2.4-1.59-4.19-2.14-5.37
			c-0.98-2.1-2.39-4.03-4.24-5.78c-1.4-1.33-2.85-2.29-4.36-2.89c-1.5-0.6-3.19-0.9-5.07-0.9c-2.83,0-5.28,0.61-7.36,1.84
			c-1.83,1.08-3.53,2.62-5.11,4.64c-1.58,2.01-2.87,4.31-3.87,6.89c-1.43,3.63-2.14,7.76-2.14,12.4c0,3.93,0.49,7.47,1.46,10.63
			c0.98,3.16,2.4,5.8,4.28,7.93c3.46,3.96,8.04,5.93,13.75,5.93c2.86,0,5.42-0.49,7.7-1.48s4.04-2.38,5.3-4.19
			c1.45-2.08,2.5-4.88,3.16-8.41l0.86,0.15c-0.48,3.96-1.55,7.1-3.23,9.43c-1.6,2.23-3.81,3.93-6.63,5.11
			c-2.82,1.18-6.08,1.77-9.79,1.77c-3.46,0-6.76-0.51-9.92-1.54c-5.03-1.65-8.97-4.64-11.79-8.96c-2.83-4.32-4.24-9.47-4.24-15.46
			c0-4.58,0.83-8.81,2.48-12.68c1.65-3.87,3.96-6.98,6.91-9.33c2.28-1.8,5-3.24,8.17-4.3c3.17-1.06,6.34-1.6,9.52-1.6
			c3.03,0,6.24,0.58,9.62,1.73l3.08,1.01c0.6,0.23,1.13,0.34,1.58,0.34c0.63,0,1.14-0.26,1.54-0.79c0.17-0.25,0.39-0.66,0.64-1.24
			H457.15z"/>
		<path class="st1" d="M485.93,196.9v0.86c-1.43,0.07-2.59,0.28-3.49,0.6c-0.9,0.33-1.69,0.85-2.37,1.58
			c-0.83,0.85-1.37,1.9-1.63,3.16c-0.26,1.25-0.39,3.41-0.39,6.46v21.26c0,3.46,0.13,5.96,0.39,7.5c0.26,1.54,0.8,2.96,1.6,4.26
			c1.2,1.98,2.69,3.41,4.45,4.3c1.77,0.89,3.99,1.34,6.67,1.34c2.6,0,5.09-0.39,7.46-1.18c2.37-0.79,4.34-1.88,5.92-3.29
			c0.98-0.88,1.7-1.83,2.16-2.85c0.46-1.03,0.77-2.33,0.92-3.91c0.1-1.03,0.15-3.46,0.15-7.29v-21c0-2.58-0.15-4.48-0.43-5.71
			c-0.29-1.23-0.82-2.24-1.6-3.04c-0.7-0.73-1.5-1.25-2.39-1.58c-0.89-0.33-2.05-0.53-3.47-0.6v-0.86h17.32v0.86
			c-1.43,0.07-2.59,0.28-3.47,0.6c-0.89,0.33-1.68,0.85-2.39,1.58c-0.78,0.8-1.31,1.82-1.6,3.06c-0.29,1.24-0.43,3.14-0.43,5.69
			v23.7c0,3.51-0.27,6.09-0.81,7.76c-0.54,1.67-1.61,3.19-3.21,4.56c-3.66,3.16-8.88,4.73-15.66,4.73c-7.09,0-12.31-1.49-15.66-4.47
			c-2.18-1.9-3.48-4.41-3.91-7.51c-0.15-1.1-0.23-3.09-0.23-5.97v-22.8c0-2.58-0.14-4.48-0.41-5.71c-0.28-1.23-0.81-2.24-1.61-3.04
			c-0.68-0.73-1.46-1.25-2.35-1.58c-0.89-0.33-2.06-0.53-3.51-0.6v-0.86H485.93z"/>
		<path class="st1" d="M522.21,248.02l0.11-15.51l0.86,0.04c1.05,3.95,2.3,7.06,3.76,9.33c2.73,4.2,6.16,6.3,10.29,6.3
			c2.88,0,5.26-0.96,7.14-2.89c1.88-1.93,2.82-4.37,2.82-7.33c0-1.28-0.21-2.58-0.62-3.91c-0.41-1.33-0.97-2.47-1.67-3.42
			c-0.73-0.98-1.75-1.92-3.06-2.82c-1.31-0.9-3.32-2.04-6.03-3.42c-2.38-1.2-4.2-2.22-5.47-3.04c-1.26-0.83-2.29-1.67-3.06-2.52
			c-2.15-2.35-3.23-5.22-3.23-8.6c0-2.08,0.42-4.08,1.26-6.01c0.84-1.93,2.01-3.58,3.51-4.96c2.65-2.45,5.8-3.68,9.43-3.68
			c1.18,0,2.27,0.12,3.27,0.36c1,0.24,2.34,0.71,4.02,1.41c1.25,0.5,2.1,0.82,2.55,0.96c0.45,0.14,0.85,0.21,1.2,0.21
			c0.88,0,1.47-0.64,1.77-1.92h0.86l0.26,14.91h-0.86c-0.68-2.38-1.26-4.2-1.74-5.47c-0.49-1.26-1.07-2.44-1.74-3.51
			c-1.22-1.95-2.57-3.4-4.05-4.34c-1.47-0.94-3.18-1.41-5.1-1.41c-2.8,0-5.01,0.95-6.64,2.86c-0.68,0.78-1.21,1.69-1.59,2.75
			c-0.39,1.05-0.58,2.11-0.58,3.16c0,4.19,2.69,7.56,8.06,10.12l5.29,2.56c4.08,1.93,7.01,4.06,8.82,6.39
			c2.05,2.61,3.08,5.64,3.08,9.1c0,2.3-0.46,4.5-1.39,6.6c-1.3,2.92-3.26,5.18-5.86,6.76c-2.6,1.59-5.67,2.38-9.2,2.38
			c-3.23,0-6.34-0.64-9.32-1.92c-1.55-0.68-2.48-1.07-2.78-1.16c-0.3-0.1-0.64-0.15-1.01-0.15c-1.2,0-2.03,0.6-2.48,1.8H522.21z"/>
	</g>
</g>
</svg>
